<?xml version="1.0" encoding="utf-8"?>
<!-- Generator: Adobe Illustrator 23.0.1, SVG Export Plug-In . SVG Version: 6.00 Build 0)  -->
<svg version="1.1" id="Layer_1" xmlns="http://www.w3.org/2000/svg" xmlns:xlink="http://www.w3.org/1999/xlink" x="0px" y="0px"
	 viewBox="0 0 500 500" style="enable-background:new 0 0 500 500;" xml:space="preserve">
<style type="text/css">
	.st0{enable-background:new    ;}
	.st1{fill:#004B82;}
	.st2{clip-path:url(#SVGID_2_);enable-background:new    ;}
	.st3{fill:#004C85;}
	.st4{fill:#004F8A;}
	.st5{fill:#00528F;}
	.st6{fill:#005594;}
	.st7{fill:#005899;}
	.st8{fill:#005B9E;}
	.st9{fill:#005DA3;}
	.st10{fill:#0060A8;}
	.st11{clip-path:url(#SVGID_4_);enable-background:new    ;}
	.st12{clip-path:url(#SVGID_6_);enable-background:new    ;}
	.st13{fill:#0067B4;}
	.st14{fill:#007FDF;}
	.st15{clip-path:url(#SVGID_8_);enable-background:new    ;}
</style>
<g>
	<g class="st0">
		<g>
			<polygon class="st1" points="396,260.8 373.2,248.4 373.4,146.1 396.2,158.5 			"/>
		</g>
		<g class="st0">
			<defs>
				<path id="SVGID_1_" class="st0" d="M340.4,395.4L317.6,383c-18.3-10-30.4-30.3-30.4-55.5c0.1-39,29.5-74.8,65.6-79.9
					c7.1-1,13.9-0.7,20.3,0.7l22.8,12.4c-6.4-1.4-13.2-1.7-20.3-0.7c-36.2,5.1-65.6,40.8-65.6,79.9
					C310,365.1,322.1,385.5,340.4,395.4z"/>
			</defs>
			<clipPath id="SVGID_2_">
				<use xlink:href="#SVGID_1_"  style="overflow:visible;"/>
			</clipPath>
			<g class="st2">
				<path class="st3" d="M340.4,395.4L317.6,383c-18.3-10-30.4-30.3-30.4-55.5c0-9.6,1.8-19,5-27.8l22.8,12.4
					c-3.2,8.8-5,18.2-5,27.8C310,365.1,322.1,385.5,340.4,395.4"/>
				<path class="st4" d="M315.1,312.2l-22.8-12.4c1.4-3.8,3.1-7.5,5-11l22.8,12.4C318.1,304.7,316.5,308.4,315.1,312.2"/>
				<path class="st5" d="M320.1,301.1l-22.8-12.4c1.6-3,3.4-5.9,5.3-8.7l22.8,12.4C323.4,295.2,321.7,298.1,320.1,301.1"/>
				<path class="st6" d="M325.4,292.5l-22.8-12.4c1.8-2.6,3.8-5.1,5.9-7.5l22.8,12.4C329.2,287.4,327.2,289.9,325.4,292.5"/>
				<path class="st7" d="M331.3,285l-22.8-12.4c2.1-2.4,4.3-4.6,6.7-6.7l22.8,12.4C335.6,280.4,333.4,282.6,331.3,285"/>
				<path class="st8" d="M338,278.3l-22.8-12.4c2.5-2.3,5.2-4.4,7.9-6.3l22.8,12.4C343.1,273.9,340.5,276,338,278.3"/>
				<path class="st9" d="M345.9,272l-22.8-12.4c3.4-2.3,6.9-4.4,10.6-6.1l22.8,12.4C352.8,267.6,349.3,269.6,345.9,272"/>
				<path class="st10" d="M356.5,265.8l-22.8-12.4c6.1-2.8,12.5-4.8,19.1-5.8c7.1-1,13.9-0.7,20.3,0.7l22.8,12.4
					c-6.4-1.4-13.2-1.7-20.3-0.7C369,261,362.6,263,356.5,265.8"/>
			</g>
		</g>
		<g class="st0">
			<defs>
				<path id="SVGID_3_" class="st0" d="M414.5,32.2l22.8,12.4c-1.4-0.8-3-1.1-4.8-0.8l-22.8-12.4C411.5,31.1,413.2,31.4,414.5,32.2z
					"/>
			</defs>
			<clipPath id="SVGID_4_">
				<use xlink:href="#SVGID_3_"  style="overflow:visible;"/>
			</clipPath>
			<g class="st11">
				<path class="st10" d="M432.5,43.8l-22.8-12.4c1.1-0.2,2.2-0.1,3.1,0.2l22.8,12.4C434.7,43.7,433.6,43.6,432.5,43.8"/>
				<path class="st9" d="M435.6,43.9l-22.8-12.4c0.5,0.1,1,0.3,1.4,0.5l22.8,12.4C436.6,44.2,436.1,44.1,435.6,43.9"/>
				<path class="st8" d="M437.1,44.5l-22.8-12.4c0.1,0,0.2,0.1,0.3,0.1l22.8,12.4C437.2,44.5,437.2,44.5,437.1,44.5"/>
			</g>
		</g>
		<g>
			<polygon class="st1" points="158.9,294.1 136.1,281.7 136.3,169.7 159.1,182.1 			"/>
		</g>
		<g class="st0">
			<defs>
				<path id="SVGID_5_" class="st0" d="M103.3,428.8l-22.8-12.4c-18.3-10-30.4-30.3-30.4-55.5c0.1-39,29.5-74.8,65.6-79.9
					c7.1-1,13.9-0.7,20.3,0.7l22.8,12.4c-6.4-1.4-13.2-1.7-20.3-0.7c-36.2,5.1-65.6,40.8-65.6,79.9C72.9,398.4,85,418.8,103.3,428.8
					z"/>
			</defs>
			<clipPath id="SVGID_6_">
				<use xlink:href="#SVGID_5_"  style="overflow:visible;"/>
			</clipPath>
			<g class="st12">
				<path class="st3" d="M103.3,428.8l-22.8-12.4c-18.3-10-30.4-30.3-30.4-55.5c0-9.6,1.8-19,5-27.8L78,345.5
					c-3.2,8.8-5,18.2-5,27.8C72.9,398.4,85,418.8,103.3,428.8"/>
				<path class="st4" d="M78,345.5l-22.8-12.4c1.4-3.8,3.1-7.5,5-11l22.8,12.4C81,338,79.4,341.7,78,345.5"/>
				<path class="st5" d="M82.9,334.5l-22.8-12.4c1.6-3,3.4-5.9,5.3-8.7l22.8,12.4C86.3,328.6,84.6,331.5,82.9,334.5"/>
				<path class="st6" d="M88.3,325.8l-22.8-12.4c1.8-2.6,3.8-5.1,5.9-7.5l22.8,12.4C92.1,320.7,90.1,323.2,88.3,325.8"/>
				<path class="st7" d="M94.2,318.3l-22.8-12.4c2.1-2.4,4.3-4.6,6.7-6.7l22.8,12.4C98.5,313.7,96.3,315.9,94.2,318.3"/>
				<path class="st8" d="M100.9,311.6l-22.8-12.4c2.5-2.3,5.2-4.4,7.9-6.3l22.8,12.4C106,307.2,103.4,309.3,100.9,311.6"/>
				<path class="st9" d="M108.8,305.3L86,292.9c3.4-2.3,6.9-4.4,10.6-6.1l22.8,12.4C115.7,300.9,112.2,303,108.8,305.3"/>
				<path class="st10" d="M119.4,299.2l-22.8-12.4c6.1-2.8,12.5-4.8,19.1-5.8c7.1-1,13.9-0.7,20.3,0.7l22.8,12.4
					c-6.4-1.4-13.2-1.7-20.3-0.7C131.9,294.4,125.5,296.3,119.4,299.2"/>
			</g>
		</g>
		<g>
			<polygon class="st1" points="159.1,182.1 136.3,169.7 136.4,106.3 159.2,118.7 			"/>
		</g>
		<g>
			<polygon class="st13" points="168.3,80.9 145.5,68.5 409.7,31.4 432.5,43.8 			"/>
		</g>
		<g>
			<polygon class="st1" points="159.2,118.7 136.4,106.3 136.5,79.5 159.3,91.9 			"/>
		</g>
		<g>
			<path class="st14" d="M432.5,43.8c5-0.7,9,3.1,9,8.5l0,26.8l-0.1,63.4L441,320.3c-0.1,40.3-29.5,76-65.6,81.1S310,379,310,340
				c0.1-39,29.5-74.8,65.6-79.9c7.1-1,13.9-0.7,20.3,0.7l0.2-102.2l-191.9,27l-0.3,168.2c-0.1,40.3-29.5,76-65.6,81.1
				s-65.4-22.4-65.4-61.5c0.1-39,29.5-74.8,65.6-79.9c7.1-1,13.9-0.7,20.3,0.7l0.2-112l0.1-63.4l0-26.8c0-5.4,4.1-10.3,9.1-11
				L432.5,43.8z"/>
		</g>
		<g class="st0">
			<defs>
				<path id="SVGID_7_" class="st0" d="M159.3,91.9l-22.8-12.4c0-5.4,4.1-10.3,9.1-11l22.8,12.4C163.3,81.6,159.3,86.5,159.3,91.9z"
					/>
			</defs>
			<clipPath id="SVGID_8_">
				<use xlink:href="#SVGID_7_"  style="overflow:visible;"/>
			</clipPath>
			<g class="st15">
				<path class="st3" d="M159.3,91.9l-22.8-12.4c0-1.3,0.2-2.6,0.7-3.8l22.8,12.4C159.5,89.3,159.3,90.6,159.3,91.9"/>
				<path class="st4" d="M159.9,88.1l-22.8-12.4c0.2-0.5,0.4-1,0.7-1.5l22.8,12.4C160.4,87,160.1,87.6,159.9,88.1"/>
				<path class="st5" d="M160.6,86.6l-22.8-12.4c0.2-0.4,0.5-0.8,0.7-1.2l22.8,12.4C161.1,85.7,160.9,86.1,160.6,86.6"/>
				<path class="st6" d="M161.4,85.4L138.6,73c0.3-0.4,0.5-0.7,0.8-1l22.8,12.4C161.9,84.7,161.6,85,161.4,85.4"/>
				<path class="st7" d="M162.2,84.3l-22.8-12.4c0.3-0.3,0.6-0.6,0.9-0.9l22.8,12.4C162.8,83.7,162.5,84,162.2,84.3"/>
				<path class="st8" d="M163.1,83.4L140.3,71c0.3-0.3,0.7-0.6,1.1-0.9l22.8,12.4C163.8,82.8,163.5,83.1,163.1,83.4"/>
				<path class="st9" d="M164.2,82.5l-22.8-12.4c0.5-0.3,1-0.6,1.5-0.8l22.8,12.4C165.2,81.9,164.7,82.2,164.2,82.5"/>
				<path class="st10" d="M165.7,81.7l-22.8-12.4c0.8-0.4,1.7-0.7,2.6-0.8l22.8,12.4C167.4,81,166.5,81.3,165.7,81.7"/>
			</g>
		</g>
	</g>
</g>
</svg>
