<svg xmlns="http://www.w3.org/2000/svg" viewBox="0 0 267.87 407.08"><defs><style>.cls-1{fill:none;stroke:#000;stroke-miterlimit:10;stroke-width:7px;}</style></defs><title>Asset 2</title><g id="Layer_2" data-name="Layer 2"><g id="Layer_1-2" data-name="Layer 1"><circle class="cls-1" cx="128.88" cy="54.13" r="50.63"/><polyline class="cls-1" points="107.21 99.91 107.21 119.7 71.26 113.58 31.26 31.58 4.26 44.58 33.26 135.58 93.19 157.06 93.19 266.62 86.55 403.58 118.09 403.58 128.88 286.54 142.99 403.58 172.04 403.58 162.82 265.25"/><polyline class="cls-1" points="148.8 99.91 148.8 119.7 192.26 109.58 235.26 31.58 263.26 49.58 217.26 135.58 162.82 157.06 162.82 266.62"/><line class="cls-1" x1="103.98" y1="48.13" x2="116.43" y2="48.13"/><line class="cls-1" x1="143.41" y1="47.13" x2="155.86" y2="47.13"/><ellipse class="cls-1" cx="129.99" cy="80.58" rx="14.73" ry="13"/><line class="cls-1" x1="95.26" y1="39.58" x2="112.26" y2="28.58"/><line class="cls-1" x1="164.26" y1="39.58" x2="147.26" y2="28.58"/></g></g></svg>