<svg xmlns="http://www.w3.org/2000/svg" viewBox="0 0 275.62 215.14"><defs><style>.cls-1{fill:#232121;}</style></defs><title>Asset 1</title><g id="Layer_2" data-name="Layer 2"><g id="Layer_1-2" data-name="Layer 1"><path class="cls-1" d="M153,107.62V204.4c0,5.18-2.65,9-7.17,10.31a9.87,9.87,0,0,1-9.74-2.35l-32.68-28.27c-10.81-9.35-21.62-18.73-32.48-28a4.24,4.24,0,0,0-2.61-.89c-19.22,0-38.44,0-57.66,0-5,0-8.63-2.37-10.07-6.66A12.48,12.48,0,0,1,0,144.62q0-37.44,0-74.89c0-6.51,4.17-10.59,10.73-10.6q29.21,0,58.39,0A4.42,4.42,0,0,0,72.28,58Q104.1,30.42,136,2.9C140.88-1.35,147.31-.88,151,4a10.88,10.88,0,0,1,2,6.86q0,25.62,0,51.23Z"/><path class="cls-1" d="M275.62,104.91c-.4,40.56-11.73,74.22-34.33,104.07-2.06,2.73-4.3,5-7.86,5.48a9.45,9.45,0,0,1-9.59-4.25,9.05,9.05,0,0,1-.42-10.33c2-3.3,4.55-6.3,6.74-9.51a144.29,144.29,0,0,0,23.69-59.5A143.22,143.22,0,0,0,255.16,96a144.54,144.54,0,0,0-30.81-78.23c-3.27-4.18-3.55-8.83-.77-12.66a9.91,9.91,0,0,1,15.95-.21,162.6,162.6,0,0,1,18.63,29.22,161.26,161.26,0,0,1,15.92,52.17C275,93.47,275.29,100.78,275.62,104.91Z"/><path class="cls-1" d="M239,106.8c-.21,28.83-8.22,53.88-24.09,76.42-1.93,2.75-4.24,4.8-7.69,5.2a9.47,9.47,0,0,1-9.45-4.25,9.26,9.26,0,0,1-.47-10.34c1.11-2,2.55-3.79,3.8-5.7a106.64,106.64,0,0,0,17.33-48.52c2.79-28-4-53.44-20.5-76.21-4.68-6.46-1.43-14.33,5-16.08a10,10,0,0,1,10.88,4.06,128.93,128.93,0,0,1,16.42,30,125.62,125.62,0,0,1,8.31,37.27C238.83,101.76,238.94,104.91,239,106.8Z"/><path class="cls-1" d="M200.05,108.08a90.34,90.34,0,0,1-13.5,47.33,9.94,9.94,0,1,1-17.07-10.18,70.93,70.93,0,0,0,9.94-27.33,68.74,68.74,0,0,0-10.09-47.16,10.16,10.16,0,0,1,2.86-14.12C176.9,53.56,183,55,186.14,60a89.73,89.73,0,0,1,11.23,26.29A92.1,92.1,0,0,1,200.05,108.08Z"/></g></g></svg>